<svg width="40" height="29" viewBox="0 0 40 29" fill="none" xmlns="http://www.w3.org/2000/svg">
<path d="M37.5665 5.69984C37.3685 4.90885 36.9653 4.18412 36.3976 3.59885C35.8299 3.01357 35.1177 2.58848 34.3331 2.3665C31.4665 1.6665 19.9998 1.6665 19.9998 1.6665C19.9998 1.6665 8.53315 1.6665 5.66648 2.43317C4.88189 2.65515 4.16978 3.08024 3.60206 3.66551C3.03434 4.25079 2.63113 4.97552 2.43315 5.7665C1.9085 8.67576 1.65187 11.627 1.66648 14.5832C1.64778 17.5616 1.90443 20.5353 2.43315 23.4665C2.65141 24.2329 3.06366 24.9301 3.63005 25.4906C4.19645 26.0512 4.89785 26.4562 5.66648 26.6665C8.53315 27.4332 19.9998 27.4332 19.9998 27.4332C19.9998 27.4332 31.4665 27.4332 34.3331 26.6665C35.1177 26.4445 35.8299 26.0194 36.3976 25.4342C36.9653 24.8489 37.3685 24.1242 37.5665 23.3332C38.0871 20.4458 38.3437 17.5171 38.3331 14.5832C38.3519 11.6048 38.0952 8.631 37.5665 5.69984Z" stroke="#D1D3D4" stroke-width="3" stroke-linecap="round" stroke-linejoin="round"/>
<path d="M16.2498 20.0332L25.8331 14.5832L16.2498 9.13317V20.0332Z" stroke="#D1D3D4" stroke-width="3" stroke-linecap="round" stroke-linejoin="round"/>
</svg>
