<svg width="23" height="23" viewBox="0 0 23 23" fill="none" xmlns="http://www.w3.org/2000/svg">
<path d="M21.9166 11.5002C21.9166 17.2531 17.2529 21.9168 11.5 21.9168M21.9166 11.5002C21.9166 5.7472 17.2529 1.0835 11.5 1.0835M21.9166 11.5002H1.08331M11.5 21.9168C5.74701 21.9168 1.08331 17.2531 1.08331 11.5002M11.5 21.9168C14.1055 19.0644 15.5862 15.3626 15.6666 11.5002C15.5862 7.6377 14.1055 3.93595 11.5 1.0835M11.5 21.9168C8.89448 19.0644 7.41378 15.3626 7.33331 11.5002C7.41378 7.6377 8.89448 3.93595 11.5 1.0835M1.08331 11.5002C1.08331 5.7472 5.74701 1.0835 11.5 1.0835" stroke="#ECC689" stroke-width="2" stroke-linecap="round" stroke-linejoin="round"/>
</svg>
