<svg width="38" height="38" viewBox="0 0 38 38" fill="none" xmlns="http://www.w3.org/2000/svg">
<path d="M28.1668 9.8335H28.1835M10.6668 2.3335H27.3335C31.9359 2.3335 35.6668 6.06446 35.6668 10.6668V27.3335C35.6668 31.9359 31.9359 35.6668 27.3335 35.6668H10.6668C6.06446 35.6668 2.3335 31.9359 2.3335 27.3335V10.6668C2.3335 6.06446 6.06446 2.3335 10.6668 2.3335ZM25.6668 17.9502C25.8725 19.3372 25.6356 20.7539 24.9898 21.9985C24.3439 23.2432 23.3221 24.2525 22.0695 24.883C20.817 25.5134 19.3976 25.7328 18.0131 25.5101C16.6287 25.2873 15.3498 24.6336 14.3582 23.6421C13.3667 22.6506 12.7131 21.3716 12.4903 19.9872C12.2675 18.6028 12.4869 17.1833 13.1174 15.9308C13.7478 14.6783 14.7571 13.6564 16.0018 13.0106C17.2465 12.3647 18.6631 12.1278 20.0502 12.3335C21.465 12.5433 22.7749 13.2026 23.7863 14.214C24.7977 15.2254 25.457 16.5353 25.6668 17.9502Z" stroke="#D1D3D4" stroke-width="3" stroke-linecap="round" stroke-linejoin="round"/>
</svg>
