<svg width="62" height="62" viewBox="0 0 62 62" fill="none" xmlns="http://www.w3.org/2000/svg">
<g filter="url(#filter0_d_599_3722)">
<rect x="14" y="10" width="34" height="34" rx="17" fill="white"/>
<path d="M26.7333 33.4616L27.0814 33.8695C26.9802 33.9576 26.8499 34.004 26.7165 33.9997L26.7333 33.4616ZM27.8709 31.6177C28.0534 31.3843 28.3889 31.3445 28.62 31.5287C28.8512 31.713 28.8907 32.0516 28.7081 32.2851L27.8709 31.6177ZM27.4457 31.1768L27.6313 30.6719C27.6383 30.6746 27.6453 30.6774 27.6523 30.6803L27.4457 31.1768ZM29.2995 31.7319L29.3891 31.201L29.3978 31.2026L29.2995 31.7319ZM32.611 31.719L32.7121 32.2477L32.7088 32.2483L32.611 31.719ZM35.4238 30.7251L35.7204 31.1726C35.7087 31.1806 35.6967 31.188 35.6844 31.1949L35.4238 30.7251ZM35.5389 30.6605L35.2428 30.2126C35.2613 30.2001 35.2805 30.1889 35.3003 30.1789L35.5389 30.6605ZM35.59 30.6219L35.2129 30.2411C35.2479 30.2057 35.2876 30.1755 35.3309 30.1511L35.59 30.6219ZM33.2919 32.2591C33.1094 32.0256 33.1489 31.687 33.3801 31.5028C33.6113 31.3186 33.9467 31.3585 34.1292 31.592L33.2919 32.2591ZM35.2667 33.4616L35.2836 33.9997C35.1478 34.0041 35.0155 33.956 34.9136 33.8652L35.2667 33.4616ZM38.4667 31.0349H39C39 31.0637 38.9977 31.0925 38.9932 31.1209L38.4667 31.0349ZM36.6256 21.8939L36.9456 21.4632C37.0273 21.525 37.0896 21.6092 37.1253 21.7058L36.6256 21.8939ZM33.0329 20.5386L32.502 20.4875C32.5276 20.2156 32.7508 20.0062 33.0212 20.0002L33.0329 20.5386ZM33.436 21.9451C33.4081 22.2411 33.1477 22.4582 32.8545 22.4301C32.5613 22.4019 32.3462 22.139 32.3741 21.843L33.436 21.9451ZM29.6751 21.877C29.7127 22.172 29.5063 22.4418 29.2141 22.4797C28.922 22.5176 28.6547 22.3092 28.6172 22.0142L29.6751 21.877ZM28.9672 20.5387L28.9789 20.0003C29.2426 20.0062 29.4625 20.2059 29.4961 20.4701L28.9672 20.5387ZM25.3745 21.894L24.8748 21.7059C24.9105 21.6093 24.9728 21.5251 25.0545 21.4633L25.3745 21.894ZM23.5333 31.0349L23.0068 31.1209C23.0022 31.0925 23 31.0637 23 31.0349H23.5333ZM32.0868 28.4016L32.6201 28.3927V28.4016H32.0868ZM26.7333 33.4616C26.3853 33.0536 26.3853 33.0536 26.3853 33.0536L26.3882 33.0511C26.3902 33.0493 26.3934 33.0465 26.3975 33.0429C26.4059 33.0357 26.4182 33.0248 26.4342 33.0107C26.4663 32.9826 26.5127 32.9415 26.5697 32.8908C26.6838 32.7892 26.8396 32.6488 27.0068 32.4938C27.3533 32.1727 27.71 31.8235 27.8709 31.6177L28.7081 32.2851C28.4855 32.5697 28.0641 32.9757 27.7283 33.287C27.5545 33.4482 27.3932 33.5935 27.2754 33.6984C27.2164 33.7508 27.1682 33.7934 27.1346 33.8229C27.1179 33.8378 27.1047 33.8493 27.0957 33.8571C27.0912 33.861 27.0877 33.8641 27.0852 33.8662L27.0825 33.8687L27.0814 33.8695C27.0814 33.8695 27.0814 33.8695 26.7333 33.4616ZM26.2687 29.9656C26.7591 30.2917 27.2217 30.5185 27.6313 30.6719L27.2602 31.6817C26.7748 31.4998 26.24 31.236 25.682 30.865L26.2687 29.9656ZM27.6523 30.6803C28.2566 30.9368 28.8311 31.1051 29.3891 31.201L29.21 32.2628C28.5662 32.1521 27.9133 31.9592 27.2391 31.6733L27.6523 30.6803ZM29.3978 31.2026C30.5485 31.4205 31.6059 31.3607 32.5131 31.1897L32.7088 32.2483C31.6983 32.4388 30.5055 32.508 29.2013 32.2611L29.3978 31.2026ZM32.5099 31.1904C33.1998 31.0559 33.7947 30.8601 34.2965 30.6624L34.6848 31.6654C34.1384 31.8807 33.4798 32.0981 32.7121 32.2477L32.5099 31.1904ZM34.2965 30.6624C34.576 30.552 34.8713 30.4203 35.1633 30.2553L35.6844 31.1949C35.3369 31.3913 34.9935 31.5434 34.6848 31.6654L34.2965 30.6624ZM35.1273 30.2776C35.1784 30.243 35.2268 30.2192 35.2427 30.2112C35.2653 30.1998 35.2554 30.2041 35.2428 30.2126L35.8349 31.1084C35.7839 31.1428 35.7356 31.1665 35.7199 31.1743C35.6974 31.1857 35.7075 31.1813 35.7204 31.1726L35.1273 30.2776ZM35.3003 30.1789C35.2797 30.1893 35.2577 30.2033 35.2366 30.2203C35.2184 30.2349 35.2055 30.2485 35.2129 30.2411L35.9671 31.0026C35.9425 31.0275 35.8809 31.0899 35.7774 31.1421L35.3003 30.1789ZM35.3309 30.1511C35.4365 30.0919 35.5174 30.0423 35.5705 30.0085C35.597 29.9915 35.6165 29.9786 35.6286 29.9705C35.6346 29.9665 35.6388 29.9635 35.6411 29.962L35.6431 29.9606C35.6431 29.9606 35.6421 29.9613 35.948 30.4024C36.2538 30.8435 36.2537 30.8436 36.2537 30.8436L36.2522 30.8447L36.2499 30.8463C36.2481 30.8476 36.2458 30.8491 36.243 30.851C36.2374 30.8549 36.2298 30.8602 36.2202 30.8665C36.2012 30.8794 36.1743 30.8971 36.1401 30.919C36.0717 30.9626 35.9736 31.0227 35.849 31.0926L35.3309 30.1511ZM34.1292 31.592C34.292 31.8002 34.6509 32.1571 34.9971 32.4846C35.1646 32.6431 35.3206 32.7868 35.4349 32.8909C35.4919 32.9429 35.5384 32.9849 35.5705 33.0138C35.5866 33.0283 35.599 33.0394 35.6074 33.047C35.6115 33.0506 35.6147 33.0535 35.6168 33.0554L35.6191 33.0574C35.6191 33.0574 35.6197 33.058 35.2667 33.4616C34.9136 33.8652 34.9136 33.8652 34.9136 33.8652L34.9126 33.8642L34.9098 33.8618C34.9074 33.8596 34.904 33.8565 34.8994 33.8525C34.8904 33.8444 34.8773 33.8327 34.8605 33.8176C34.827 33.7874 34.7789 33.7438 34.72 33.6902C34.6024 33.583 34.4413 33.4347 34.2677 33.2704C33.9317 32.9525 33.5126 32.5415 33.2919 32.2591L34.1292 31.592ZM35.2498 32.9235C36.4932 32.8836 37.1464 32.3619 37.5012 31.8892C37.6853 31.6439 37.7972 31.3997 37.8627 31.2176C37.8952 31.1272 37.9156 31.0537 37.9274 31.0057C37.9333 30.9818 37.937 30.9643 37.939 30.9544C37.94 30.9495 37.9407 30.9455 37.9407 30.9455L37.9405 30.9469L37.9403 30.9483C37.9403 30.9483 37.9402 30.9489 38.4667 31.0349C38.9932 31.1209 38.9932 31.1209 38.9932 31.1209L38.9929 31.1222L38.9927 31.1238L38.9921 31.1276C38.9916 31.1304 38.991 31.1337 38.9903 31.1377C38.9889 31.1456 38.987 31.1557 38.9845 31.1679C38.9796 31.1923 38.9725 31.2252 38.9627 31.2652C38.943 31.3453 38.9121 31.4552 38.8654 31.5851C38.7723 31.8438 38.6141 32.1894 38.3514 32.5395C37.8126 33.2575 36.8658 33.9492 35.2836 33.9997L35.2498 32.9235ZM37.9333 31.0349C37.9333 29.0251 37.4863 26.792 37.0304 25.0428C36.8034 24.1722 36.5764 23.4296 36.4064 22.9053C36.3214 22.6432 36.2508 22.436 36.2016 22.295C36.177 22.2245 36.1578 22.1705 36.1449 22.1346C36.1384 22.1166 36.1336 22.1031 36.1303 22.0943C36.1287 22.0899 36.1276 22.0867 36.1268 22.0846L36.126 22.0824C36.126 22.0824 36.1259 22.0821 36.6256 21.8939C37.1253 21.7058 37.1253 21.7058 37.1253 21.7058L37.1258 21.7072L37.127 21.7105C37.1281 21.7133 37.1295 21.7173 37.1314 21.7224C37.1351 21.7327 37.1406 21.7477 37.1476 21.7673C37.1617 21.8064 37.182 21.8636 37.2078 21.9375C37.2593 22.0853 37.3325 22.3 37.4201 22.5702C37.5953 23.1103 37.8286 23.8736 38.0619 24.7687C38.5265 26.5509 39 28.8882 39 31.0349H37.9333ZM36.3056 22.3247C35.4528 21.679 34.6238 21.3672 34.0124 21.2166C33.7067 21.1412 33.4562 21.1064 33.2859 21.0904C33.2008 21.0824 33.1361 21.0791 33.0947 21.0778C33.0741 21.0771 33.0593 21.077 33.0508 21.0769C33.0465 21.0769 33.0428 21.0769 33.0428 21.0769L33.0442 21.0769C33.0442 21.0769 33.0446 21.0769 33.0329 20.5386C33.0212 20.0002 33.0212 20.0002 33.0212 20.0002L33.0233 20.0002L33.0259 20.0002C33.0259 20.0002 33.0303 20.0001 33.0332 20.0001C33.0389 20 33.0463 20 33.0553 20C33.0734 20.0001 33.098 20.0004 33.1288 20.0014C33.1905 20.0034 33.2769 20.008 33.3849 20.0182C33.6005 20.0384 33.903 20.0811 34.2653 20.1703C34.9899 20.3489 35.9573 20.7148 36.9456 21.4632L36.3056 22.3247ZM33.5639 20.5896L33.436 21.9451L32.3741 21.843L32.502 20.4875L33.5639 20.5896ZM28.6172 22.0142L28.4382 20.6073L29.4961 20.4701L29.6751 21.877L28.6172 22.0142ZM28.9672 20.5387C28.9555 21.077 28.9559 21.077 28.9559 21.077L28.9576 21.077C28.9576 21.077 28.9535 21.077 28.9493 21.077C28.9408 21.077 28.926 21.0772 28.9053 21.0779C28.864 21.0792 28.7992 21.0825 28.7142 21.0905C28.5439 21.1065 28.2934 21.1413 27.9876 21.2166C27.3763 21.3672 26.5473 21.679 25.6945 22.3248L25.0545 21.4633C26.0428 20.7148 27.0101 20.3489 27.7348 20.1704C28.0971 20.0812 28.3996 20.0385 28.6153 20.0182C28.7232 20.0081 28.8096 20.0035 28.8713 20.0015C28.9021 20.0005 28.9268 20.0002 28.9448 20.0001C28.9538 20.0001 28.9612 20.0001 28.9669 20.0002C28.9698 20.0002 28.9742 20.0002 28.9742 20.0002L28.9769 20.0003L28.9789 20.0003C28.9789 20.0003 28.9789 20.0003 28.9672 20.5387ZM25.3745 21.894C25.8742 22.0822 25.8742 22.0821 25.8742 22.0821L25.8733 22.0847C25.8725 22.0868 25.8714 22.09 25.8698 22.0944C25.8666 22.1032 25.8617 22.1167 25.8551 22.1347C25.8422 22.1706 25.823 22.2246 25.7985 22.2951C25.7493 22.4361 25.6786 22.6433 25.5937 22.9053C25.4237 23.4297 25.1967 24.1722 24.9697 25.0428C24.5137 26.792 24.0667 29.0251 24.0667 31.0349H23C23 28.8882 23.4736 26.5509 23.9381 24.7687C24.1715 23.8737 24.4048 23.1104 24.5799 22.5702C24.6676 22.3 24.7408 22.0853 24.7923 21.9375C24.818 21.8636 24.8384 21.8064 24.8525 21.7674C24.8595 21.7478 24.865 21.7328 24.8687 21.7225C24.8706 21.7173 24.872 21.7134 24.8731 21.7106L24.8742 21.7073L24.8748 21.7059C24.8748 21.7059 24.8748 21.7059 25.3745 21.894ZM23.5333 31.0349C24.0598 30.9489 24.0597 30.9483 24.0597 30.9483L24.0595 30.9469L24.0593 30.9456C24.0593 30.9456 24.0599 30.9495 24.061 30.9544C24.0629 30.9643 24.0667 30.9818 24.0725 31.0057C24.0844 31.0537 24.1047 31.1272 24.1373 31.2176C24.2028 31.3997 24.3148 31.6439 24.4989 31.8892C24.8537 32.3619 25.5069 32.8836 26.7502 32.9235L26.7165 33.9997C25.1342 33.9492 24.1874 33.2575 23.6486 32.5395C23.3859 32.1894 23.2277 31.8439 23.1346 31.5851C23.0879 31.4552 23.0571 31.3453 23.0373 31.2652C23.0274 31.2252 23.0204 31.1923 23.0155 31.1679C23.013 31.1557 23.0111 31.1456 23.0097 31.1377C23.0091 31.1337 23.0084 31.1304 23.008 31.1276L23.0074 31.1238L23.007 31.1222L23.0068 31.1209C23.0068 31.1209 23.0068 31.1209 23.5333 31.0349ZM33.3909 26.4303C34.4589 26.4303 35.2283 27.364 35.2283 28.4016H34.1616C34.1616 27.8644 33.7804 27.5073 33.3909 27.5073V26.4303ZM35.2283 28.4016C35.2283 29.4428 34.4429 30.3729 33.3909 30.3729V29.2959C33.7709 29.2959 34.1616 28.9353 34.1616 28.4016H35.2283ZM33.3909 30.3729C32.3229 30.3729 31.5535 29.4392 31.5535 28.4016H32.6201C32.6201 28.9388 33.0013 29.2959 33.3909 29.2959V30.3729ZM31.5536 28.4104C31.5364 27.3574 32.3305 26.4303 33.3909 26.4303V27.5073C32.9938 27.5073 32.6116 27.871 32.6201 28.3927L31.5536 28.4104ZM28.7242 26.4303C29.7922 26.4303 30.5617 27.3639 30.5617 28.4016H29.495C29.495 27.8645 29.1139 27.5073 28.7242 27.5073V26.4303ZM30.5617 28.4016C30.5617 29.4429 29.7761 30.3729 28.7242 30.3729V29.2959C29.1043 29.2959 29.495 28.9352 29.495 28.4016H30.5617ZM28.7242 30.3729C27.6562 30.3729 26.8868 29.4392 26.8868 28.4016H27.9535C27.9535 28.9388 28.3347 29.2959 28.7242 29.2959V30.3729ZM26.8868 28.4016C26.8868 27.364 27.6562 26.4303 28.7242 26.4303V27.5073C28.3347 27.5073 27.9535 27.8644 27.9535 28.4016H26.8868ZM35.0113 23.7036C33.472 22.856 32.2185 22.4606 30.9975 22.46C29.7768 22.4594 28.5252 22.8534 26.9897 23.703L26.477 22.7587C28.1012 21.8599 29.5334 21.3823 30.998 21.3831C32.4623 21.3838 33.8956 21.8626 35.522 22.7581L35.0113 23.7036Z" fill="black"/>
</g>
<defs>
<filter id="filter0_d_599_3722" x="0" y="0" width="62" height="62" filterUnits="userSpaceOnUse" color-interpolation-filters="sRGB">
<feFlood flood-opacity="0" result="BackgroundImageFix"/>
<feColorMatrix in="SourceAlpha" type="matrix" values="0 0 0 0 0 0 0 0 0 0 0 0 0 0 0 0 0 0 127 0" result="hardAlpha"/>
<feOffset dy="4"/>
<feGaussianBlur stdDeviation="7"/>
<feColorMatrix type="matrix" values="0 0 0 0 0 0 0 0 0 0 0 0 0 0 0 0 0 0 0.15 0"/>
<feBlend mode="normal" in2="BackgroundImageFix" result="effect1_dropShadow_599_3722"/>
<feBlend mode="normal" in="SourceGraphic" in2="effect1_dropShadow_599_3722" result="shape"/>
</filter>
</defs>
</svg>
